<svg xmlns="http://www.w3.org/2000/svg" width="512" height="512" viewBox="0 0 512 512">
  <defs>
    <radialGradient id="bg" cx="50%" cy="32%" r="82%">
      <stop offset="0%" stop-color="#2f2360"/>
      <stop offset="58%" stop-color="#1a1442"/>
      <stop offset="100%" stop-color="#0e0a24"/>
    </radialGradient>
    <linearGradient id="petal" x1="0.5" y1="1" x2="0.5" y2="0">
      <stop offset="0%" stop-color="#9a3689"/>
      <stop offset="45%" stop-color="#e24e97"/>
      <stop offset="100%" stop-color="#ff9fc4"/>
    </linearGradient>
    <radialGradient id="core" cx="50%" cy="42%" r="60%">
      <stop offset="0%" stop-color="#fff7da"/>
      <stop offset="55%" stop-color="#ffd36c"/>
      <stop offset="100%" stop-color="#f6a53c"/>
    </radialGradient>
    <radialGradient id="glow" cx="50%" cy="50%" r="50%">
      <stop offset="0%" stop-color="#ff7ab0" stop-opacity="0.55"/>
      <stop offset="100%" stop-color="#ff7ab0" stop-opacity="0"/>
    </radialGradient>
  </defs>

  <rect width="512" height="512" rx="112" fill="url(#bg)"/>
  <circle cx="256" cy="256" r="188" fill="url(#glow)"/>

  <g transform="translate(256,256)">
    <g fill="url(#petal)" stroke="#ffffff" stroke-opacity="0.08" stroke-width="2">
      <path transform="rotate(0)"   d="M0,0 C50,-58 28,-186 0,-196 C-28,-186 -50,-58 0,0 Z"/>
      <path transform="rotate(60)"  d="M0,0 C50,-58 28,-186 0,-196 C-28,-186 -50,-58 0,0 Z"/>
      <path transform="rotate(120)" d="M0,0 C50,-58 28,-186 0,-196 C-28,-186 -50,-58 0,0 Z"/>
      <path transform="rotate(180)" d="M0,0 C50,-58 28,-186 0,-196 C-28,-186 -50,-58 0,0 Z"/>
      <path transform="rotate(240)" d="M0,0 C50,-58 28,-186 0,-196 C-28,-186 -50,-58 0,0 Z"/>
      <path transform="rotate(300)" d="M0,0 C50,-58 28,-186 0,-196 C-28,-186 -50,-58 0,0 Z"/>
    </g>
    <circle r="50" fill="url(#core)"/>
  </g>
</svg>
